{
	"asset":{
		"generator":"Khronos glTF Blender I/O v5.0.21",
		"version":"2.0"
	},
	"extensionsUsed":[
		"KHR_materials_specular"
	],
	"scene":0,
	"scenes":[
		{
			"name":"Scene",
			"nodes":[
				0
			]
		}
	],
	"nodes":[
		{
			"mesh":0,
			"name":"Character_12",
			"translation":[
				2.893075942993164,
				-4.75620174407959,
				6.505313396453857
			]
		}
	],
	"materials":[
		{
			"doubleSided":true,
			"extensions":{
				"KHR_materials_specular":{
					"specularFactor":0
				}
			},
			"name":"Character_12",
			"pbrMetallicRoughness":{
				"baseColorTexture":{
					"index":0
				},
				"metallicFactor":0
			}
		}
	],
	"meshes":[
		{
			"name":"Character_12",
			"primitives":[
				{
					"attributes":{
						"POSITION":0,
						"NORMAL":1,
						"TEXCOORD_0":2
					},
					"indices":3,
					"material":0
				}
			]
		}
	],
	"textures":[
		{
			"sampler":0,
			"source":0
		}
	],
	"images":[
		{
			"mimeType":"image/png",
			"name":"Character_12",
			"uri":"Character_12.png"
		}
	],
	"accessors":[
		{
			"bufferView":0,
			"componentType":5126,
			"count":934,
			"max":[
				0.39260539412498474,
				4.481365203857422,
				0.8151623606681824
			],
			"min":[
				-0.4186370372772217,
				-0.023531774058938026,
				-0.8153019547462463
			],
			"type":"VEC3"
		},
		{
			"bufferView":1,
			"componentType":5126,
			"count":934,
			"type":"VEC3"
		},
		{
			"bufferView":2,
			"componentType":5126,
			"count":934,
			"type":"VEC2"
		},
		{
			"bufferView":3,
			"componentType":5123,
			"count":2856,
			"type":"SCALAR"
		}
	],
	"bufferViews":[
		{
			"buffer":0,
			"byteLength":11208,
			"byteOffset":0,
			"target":34962
		},
		{
			"buffer":0,
			"byteLength":11208,
			"byteOffset":11208,
			"target":34962
		},
		{
			"buffer":0,
			"byteLength":7472,
			"byteOffset":22416,
			"target":34962
		},
		{
			"buffer":0,
			"byteLength":5712,
			"byteOffset":29888,
			"target":34963
		}
	],
	"samplers":[
		{
			"magFilter":9728,
			"minFilter":9984
		}
	],
	"buffers":[
		{
			"byteLength":35600,
			"uri":"guy.bin"
		}
	]
}
