{
	"asset":{
		"generator":"Khronos glTF Blender I/O v5.0.21",
		"version":"2.0"
	},
	"scene":0,
	"scenes":[
		{
			"name":"Scene",
			"nodes":[
				0,
				1,
				2,
				3,
				4,
				5,
				6,
				7,
				8,
				9
			]
		}
	],
	"nodes":[
		{
			"mesh":0,
			"name":"Arm",
			"rotation":[
				0.7071068286895752,
				0,
				0,
				0.7071068286895752
			]
		},
		{
			"mesh":1,
			"name":"Claw_A",
			"rotation":[
				0.7071068286895752,
				0,
				0,
				0.7071068286895752
			]
		},
		{
			"mesh":2,
			"name":"Claw_B",
			"rotation":[
				0.7071068286895752,
				0,
				0,
				0.7071068286895752
			]
		},
		{
			"mesh":3,
			"name":"Elbow_Joint_R",
			"rotation":[
				0.7071068286895752,
				0,
				0,
				0.7071068286895752
			]
		},
		{
			"mesh":4,
			"name":"Gun",
			"rotation":[
				0.7071068286895752,
				0,
				0,
				0.7071068286895752
			]
		},
		{
			"mesh":5,
			"name":"Head",
			"rotation":[
				0.7071068286895752,
				0,
				0,
				0.7071068286895752
			]
		},
		{
			"mesh":6,
			"name":"Hook_Base",
			"rotation":[
				0.7071068286895752,
				0,
				0,
				0.7071068286895752
			]
		},
		{
			"mesh":7,
			"name":"Shoulder",
			"rotation":[
				0.7071068286895752,
				0,
				0,
				0.7071068286895752
			]
		},
		{
			"mesh":8,
			"name":"Upper_Arm",
			"rotation":[
				0.7071068286895752,
				0,
				0,
				0.7071068286895752
			]
		},
		{
			"mesh":9,
			"name":"Wrist",
			"rotation":[
				0.7071068286895752,
				0,
				0,
				0.7071068286895752
			]
		}
	],
	"meshes":[
		{
			"name":"Arm",
			"primitives":[
				{
					"attributes":{
						"POSITION":0,
						"NORMAL":1,
						"TEXCOORD_0":2
					},
					"indices":3
				}
			]
		},
		{
			"name":"Claw_A",
			"primitives":[
				{
					"attributes":{
						"POSITION":4,
						"NORMAL":5,
						"TEXCOORD_0":6
					},
					"indices":7
				}
			]
		},
		{
			"name":"Claw_B",
			"primitives":[
				{
					"attributes":{
						"POSITION":8,
						"NORMAL":9,
						"TEXCOORD_0":10
					},
					"indices":11
				}
			]
		},
		{
			"name":"Elbow_Joint_R",
			"primitives":[
				{
					"attributes":{
						"POSITION":12,
						"NORMAL":13,
						"TEXCOORD_0":14
					},
					"indices":15
				}
			]
		},
		{
			"name":"Gun",
			"primitives":[
				{
					"attributes":{
						"POSITION":16,
						"NORMAL":17,
						"TEXCOORD_0":18
					},
					"indices":19
				}
			]
		},
		{
			"name":"Head",
			"primitives":[
				{
					"attributes":{
						"POSITION":20,
						"NORMAL":21,
						"TEXCOORD_0":22
					},
					"indices":23
				}
			]
		},
		{
			"name":"Hook_Base",
			"primitives":[
				{
					"attributes":{
						"POSITION":24,
						"NORMAL":25,
						"TEXCOORD_0":26
					},
					"indices":27
				}
			]
		},
		{
			"name":"Shoulder",
			"primitives":[
				{
					"attributes":{
						"POSITION":28,
						"NORMAL":29,
						"TEXCOORD_0":30
					},
					"indices":31
				}
			]
		},
		{
			"name":"Upper_Arm",
			"primitives":[
				{
					"attributes":{
						"POSITION":32,
						"NORMAL":33,
						"TEXCOORD_0":34
					},
					"indices":35
				}
			]
		},
		{
			"name":"Wrist",
			"primitives":[
				{
					"attributes":{
						"POSITION":36,
						"NORMAL":37,
						"TEXCOORD_0":38
					},
					"indices":39
				}
			]
		}
	],
	"accessors":[
		{
			"bufferView":0,
			"componentType":5126,
			"count":24,
			"max":[
				-1.2013310194015503,
				0.0851690024137497,
				0.5394799709320068
			],
			"min":[
				-1.3542460203170776,
				-0.0851690024137497,
				-0.3268660008907318
			],
			"type":"VEC3"
		},
		{
			"bufferView":1,
			"componentType":5126,
			"count":24,
			"type":"VEC3"
		},
		{
			"bufferView":2,
			"componentType":5126,
			"count":24,
			"type":"VEC2"
		},
		{
			"bufferView":3,
			"componentType":5123,
			"count":36,
			"type":"SCALAR"
		},
		{
			"bufferView":4,
			"componentType":5126,
			"count":231,
			"max":[
				-1.2297370433807373,
				0.9871019721031189,
				1.4995540380477905
			],
			"min":[
				-1.3245199918746948,
				0.026030000299215317,
				0.8832719922065735
			],
			"type":"VEC3"
		},
		{
			"bufferView":5,
			"componentType":5126,
			"count":231,
			"type":"VEC3"
		},
		{
			"bufferView":6,
			"componentType":5126,
			"count":231,
			"type":"VEC2"
		},
		{
			"bufferView":7,
			"componentType":5123,
			"count":372,
			"type":"SCALAR"
		},
		{
			"bufferView":8,
			"componentType":5126,
			"count":992,
			"max":[
				-1.1538950204849243,
				0.07470399886369705,
				1.4995540380477905
			],
			"min":[
				-1.4143480062484741,
				-0.9871019721031189,
				0.8772460222244263
			],
			"type":"VEC3"
		},
		{
			"bufferView":9,
			"componentType":5126,
			"count":992,
			"type":"VEC3"
		},
		{
			"bufferView":10,
			"componentType":5126,
			"count":992,
			"type":"VEC2"
		},
		{
			"bufferView":11,
			"componentType":5123,
			"count":1884,
			"type":"SCALAR"
		},
		{
			"bufferView":12,
			"componentType":5126,
			"count":1668,
			"max":[
				-1.1387159824371338,
				0.17652100324630737,
				-0.20351800322532654
			],
			"min":[
				-1.4166829586029053,
				-0.17652100324630737,
				-0.5565599799156189
			],
			"type":"VEC3"
		},
		{
			"bufferView":13,
			"componentType":5126,
			"count":1668,
			"type":"VEC3"
		},
		{
			"bufferView":14,
			"componentType":5126,
			"count":1668,
			"type":"VEC2"
		},
		{
			"bufferView":15,
			"componentType":5123,
			"count":3252,
			"type":"SCALAR"
		},
		{
			"bufferView":16,
			"componentType":5126,
			"count":2281,
			"max":[
				1.4757939577102661,
				0.23914699256420135,
				0.9959440231323242
			],
			"min":[
				1.0794240236282349,
				-0.23182199895381927,
				-0.5565599799156189
			],
			"type":"VEC3"
		},
		{
			"bufferView":17,
			"componentType":5126,
			"count":2281,
			"type":"VEC3"
		},
		{
			"bufferView":18,
			"componentType":5126,
			"count":2281,
			"type":"VEC2"
		},
		{
			"bufferView":19,
			"componentType":5123,
			"count":6876,
			"type":"SCALAR"
		},
		{
			"bufferView":20,
			"componentType":5126,
			"count":8148,
			"max":[
				0.8618749976158142,
				1.233530044555664,
				-0.8396009802818298
			],
			"min":[
				-1.0580840110778809,
				-0.9999989867210388,
				-3.166445016860962
			],
			"type":"VEC3"
		},
		{
			"bufferView":21,
			"componentType":5126,
			"count":8148,
			"type":"VEC3"
		},
		{
			"bufferView":22,
			"componentType":5126,
			"count":8148,
			"type":"VEC2"
		},
		{
			"bufferView":23,
			"componentType":5123,
			"count":21792,
			"type":"SCALAR"
		},
		{
			"bufferView":24,
			"componentType":5126,
			"count":484,
			"max":[
				-1.1739250421524048,
				0.19436000287532806,
				1.06050705909729
			],
			"min":[
				-1.3800770044326782,
				-0.19436000287532806,
				0.6298810243606567
			],
			"type":"VEC3"
		},
		{
			"bufferView":25,
			"componentType":5126,
			"count":484,
			"type":"VEC3"
		},
		{
			"bufferView":26,
			"componentType":5126,
			"count":484,
			"type":"VEC2"
		},
		{
			"bufferView":27,
			"componentType":5123,
			"count":924,
			"type":"SCALAR"
		},
		{
			"bufferView":28,
			"componentType":5126,
			"count":1054,
			"max":[
				1.1584210395812988,
				0.3058930039405823,
				-1.5346050262451172
			],
			"min":[
				-1.1584210395812988,
				-0.3058930039405823,
				-2.146389961242676
			],
			"type":"VEC3"
		},
		{
			"bufferView":29,
			"componentType":5126,
			"count":1054,
			"type":"VEC3"
		},
		{
			"bufferView":30,
			"componentType":5126,
			"count":1054,
			"type":"VEC2"
		},
		{
			"bufferView":31,
			"componentType":5123,
			"count":5568,
			"type":"SCALAR"
		},
		{
			"bufferView":32,
			"componentType":5126,
			"count":11903,
			"max":[
				1.6081160306930542,
				0.3795180022716522,
				-0.441895991563797
			],
			"min":[
				-1.6081160306930542,
				-0.3795180022716522,
				-2.2235989570617676
			],
			"type":"VEC3"
		},
		{
			"bufferView":33,
			"componentType":5126,
			"count":11903,
			"type":"VEC3"
		},
		{
			"bufferView":34,
			"componentType":5126,
			"count":11903,
			"type":"VEC2"
		},
		{
			"bufferView":35,
			"componentType":5123,
			"count":28302,
			"type":"SCALAR"
		},
		{
			"bufferView":36,
			"componentType":5126,
			"count":576,
			"max":[
				-1.1456199884414673,
				0.13207900524139404,
				0.629597008228302
			],
			"min":[
				-1.4097779989242554,
				-0.13207900524139404,
				0.5394089818000793
			],
			"type":"VEC3"
		},
		{
			"bufferView":37,
			"componentType":5126,
			"count":576,
			"type":"VEC3"
		},
		{
			"bufferView":38,
			"componentType":5126,
			"count":576,
			"type":"VEC2"
		},
		{
			"bufferView":39,
			"componentType":5123,
			"count":1140,
			"type":"SCALAR"
		}
	],
	"bufferViews":[
		{
			"buffer":0,
			"byteLength":288,
			"byteOffset":0,
			"target":34962
		},
		{
			"buffer":0,
			"byteLength":288,
			"byteOffset":288,
			"target":34962
		},
		{
			"buffer":0,
			"byteLength":192,
			"byteOffset":576,
			"target":34962
		},
		{
			"buffer":0,
			"byteLength":72,
			"byteOffset":768,
			"target":34963
		},
		{
			"buffer":0,
			"byteLength":2772,
			"byteOffset":840,
			"target":34962
		},
		{
			"buffer":0,
			"byteLength":2772,
			"byteOffset":3612,
			"target":34962
		},
		{
			"buffer":0,
			"byteLength":1848,
			"byteOffset":6384,
			"target":34962
		},
		{
			"buffer":0,
			"byteLength":744,
			"byteOffset":8232,
			"target":34963
		},
		{
			"buffer":0,
			"byteLength":11904,
			"byteOffset":8976,
			"target":34962
		},
		{
			"buffer":0,
			"byteLength":11904,
			"byteOffset":20880,
			"target":34962
		},
		{
			"buffer":0,
			"byteLength":7936,
			"byteOffset":32784,
			"target":34962
		},
		{
			"buffer":0,
			"byteLength":3768,
			"byteOffset":40720,
			"target":34963
		},
		{
			"buffer":0,
			"byteLength":20016,
			"byteOffset":44488,
			"target":34962
		},
		{
			"buffer":0,
			"byteLength":20016,
			"byteOffset":64504,
			"target":34962
		},
		{
			"buffer":0,
			"byteLength":13344,
			"byteOffset":84520,
			"target":34962
		},
		{
			"buffer":0,
			"byteLength":6504,
			"byteOffset":97864,
			"target":34963
		},
		{
			"buffer":0,
			"byteLength":27372,
			"byteOffset":104368,
			"target":34962
		},
		{
			"buffer":0,
			"byteLength":27372,
			"byteOffset":131740,
			"target":34962
		},
		{
			"buffer":0,
			"byteLength":18248,
			"byteOffset":159112,
			"target":34962
		},
		{
			"buffer":0,
			"byteLength":13752,
			"byteOffset":177360,
			"target":34963
		},
		{
			"buffer":0,
			"byteLength":97776,
			"byteOffset":191112,
			"target":34962
		},
		{
			"buffer":0,
			"byteLength":97776,
			"byteOffset":288888,
			"target":34962
		},
		{
			"buffer":0,
			"byteLength":65184,
			"byteOffset":386664,
			"target":34962
		},
		{
			"buffer":0,
			"byteLength":43584,
			"byteOffset":451848,
			"target":34963
		},
		{
			"buffer":0,
			"byteLength":5808,
			"byteOffset":495432,
			"target":34962
		},
		{
			"buffer":0,
			"byteLength":5808,
			"byteOffset":501240,
			"target":34962
		},
		{
			"buffer":0,
			"byteLength":3872,
			"byteOffset":507048,
			"target":34962
		},
		{
			"buffer":0,
			"byteLength":1848,
			"byteOffset":510920,
			"target":34963
		},
		{
			"buffer":0,
			"byteLength":12648,
			"byteOffset":512768,
			"target":34962
		},
		{
			"buffer":0,
			"byteLength":12648,
			"byteOffset":525416,
			"target":34962
		},
		{
			"buffer":0,
			"byteLength":8432,
			"byteOffset":538064,
			"target":34962
		},
		{
			"buffer":0,
			"byteLength":11136,
			"byteOffset":546496,
			"target":34963
		},
		{
			"buffer":0,
			"byteLength":142836,
			"byteOffset":557632,
			"target":34962
		},
		{
			"buffer":0,
			"byteLength":142836,
			"byteOffset":700468,
			"target":34962
		},
		{
			"buffer":0,
			"byteLength":95224,
			"byteOffset":843304,
			"target":34962
		},
		{
			"buffer":0,
			"byteLength":56604,
			"byteOffset":938528,
			"target":34963
		},
		{
			"buffer":0,
			"byteLength":6912,
			"byteOffset":995132,
			"target":34962
		},
		{
			"buffer":0,
			"byteLength":6912,
			"byteOffset":1002044,
			"target":34962
		},
		{
			"buffer":0,
			"byteLength":4608,
			"byteOffset":1008956,
			"target":34962
		},
		{
			"buffer":0,
			"byteLength":2280,
			"byteOffset":1013564,
			"target":34963
		}
	],
	"buffers":[
		{
			"byteLength":1015844,
			"uri":"mech.bin"
		}
	]
}
